<svg width="21" height="21" viewBox="0 0 21 21" fill="none" xmlns="http://www.w3.org/2000/svg">
<path d="M21 19.6667V8.33333C21 8.12634 20.9526 7.92219 20.8614 7.73705C20.7703 7.55191 20.638 7.39086 20.475 7.26667L11.2875 0.266666C11.0603 0.0935702 10.784 0 10.5 0C10.216 0 9.93969 0.0935702 9.7125 0.266666L0.525 7.26667C0.361993 7.39086 0.229688 7.55191 0.138564 7.73705C0.0474403 7.92219 0 8.12634 0 8.33333V19.6667C0 20.0203 0.138281 20.3594 0.384423 20.6095C0.630564 20.8595 0.964403 21 1.3125 21H19.6875C20.0356 21 20.3694 20.8595 20.6156 20.6095C20.8617 20.3594 21 20.0203 21 19.6667Z" fill="white"/>
</svg>
