<svg width="28" height="21" viewBox="0 0 28 21" fill="none" xmlns="http://www.w3.org/2000/svg">
<path d="M12.25 21C12.25 21 10.5 21 10.5 19.25C10.5 17.5 12.25 12.25 19.25 12.25C26.25 12.25 28 17.5 28 19.25C28 21 26.25 21 26.25 21H12.25ZM19.25 10.5C20.6424 10.5 21.9777 9.94688 22.9623 8.96231C23.9469 7.97774 24.5 6.64239 24.5 5.25C24.5 3.85761 23.9469 2.52226 22.9623 1.53769C21.9777 0.553124 20.6424 0 19.25 0C17.8576 0 16.5223 0.553124 15.5377 1.53769C14.5531 2.52226 14 3.85761 14 5.25C14 6.64239 14.5531 7.97774 15.5377 8.96231C16.5223 9.94688 17.8576 10.5 19.25 10.5Z" fill="#EAEAEA"/>
<path fill-rule="evenodd" clip-rule="evenodd" d="M9.128 20.9999C8.86857 20.4536 8.73919 19.8546 8.75 19.2499C8.75 16.8786 9.94 14.4374 12.138 12.7399C11.0409 12.4019 9.89791 12.2365 8.75 12.2499C1.75 12.2499 0 17.4999 0 19.2499C0 20.9999 1.75 20.9999 1.75 20.9999H9.128Z" fill="#EAEAEA"/>
<path d="M7.87502 10.5C9.03534 10.5 10.1481 10.0391 10.9686 9.21859C11.7891 8.39812 12.25 7.28532 12.25 6.125C12.25 4.96468 11.7891 3.85188 10.9686 3.03141C10.1481 2.21094 9.03534 1.75 7.87502 1.75C6.71469 1.75 5.60189 2.21094 4.78142 3.03141C3.96095 3.85188 3.50002 4.96468 3.50002 6.125C3.50002 7.28532 3.96095 8.39812 4.78142 9.21859C5.60189 10.0391 6.71469 10.5 7.87502 10.5Z" fill="#EAEAEA"/>
</svg>
