<svg width="70" height="52" viewBox="0 0 70 52" fill="none" xmlns="http://www.w3.org/2000/svg">
<path d="M30.3333 52C30.3333 52 26 52 26 47.6667C26 43.3333 30.3333 30.3333 47.6667 30.3333C65 30.3333 69.3333 43.3333 69.3333 47.6667C69.3333 52 65 52 65 52H30.3333ZM47.6667 26C51.1145 26 54.4211 24.6304 56.8591 22.1924C59.297 19.7544 60.6667 16.4478 60.6667 13C60.6667 9.55219 59.297 6.24559 56.8591 3.80761C54.4211 1.36964 51.1145 0 47.6667 0C44.2189 0 40.9122 1.36964 38.4743 3.80761C36.0363 6.24559 34.6667 9.55219 34.6667 13C34.6667 16.4478 36.0363 19.7544 38.4743 22.1924C40.9122 24.6304 44.2189 26 47.6667 26Z" fill="white"/>
<path fill-rule="evenodd" clip-rule="evenodd" d="M22.6027 51.9997C21.9603 50.6469 21.6399 49.1637 21.6667 47.6664C21.6667 41.7947 24.6133 35.7497 30.056 31.5464C27.3394 30.7094 24.5091 30.3 21.6667 30.3331C4.33333 30.3331 0 43.3331 0 47.6664C0 51.9997 4.33333 51.9997 4.33333 51.9997H22.6027Z" fill="white"/>
<path d="M19.5 26C22.3732 26 25.1287 24.8586 27.1603 22.827C29.192 20.7953 30.3333 18.0398 30.3333 15.1667C30.3333 12.2935 29.192 9.53798 27.1603 7.50634C25.1287 5.47469 22.3732 4.33333 19.5 4.33333C16.6268 4.33333 13.8713 5.47469 11.8397 7.50634C9.80804 9.53798 8.66667 12.2935 8.66667 15.1667C8.66667 18.0398 9.80804 20.7953 11.8397 22.827C13.8713 24.8586 16.6268 26 19.5 26Z" fill="white"/>
</svg>
