<svg width="20" height="19" viewBox="0 0 20 19" fill="none" xmlns="http://www.w3.org/2000/svg">
<path d="M10 9.05331C11.2155 9.05331 12.3813 8.57639 13.2408 7.72748C14.1003 6.87857 14.5832 5.7272 14.5832 4.52665C14.5832 3.32611 14.1003 2.17474 13.2408 1.32583C12.3813 0.476914 11.2155 0 10 0C8.78446 0 7.61871 0.476914 6.7592 1.32583C5.89969 2.17474 5.41682 3.32611 5.41682 4.52665C5.41682 5.7272 5.89969 6.87857 6.7592 7.72748C7.61871 8.57639 8.78446 9.05331 10 9.05331ZM10 11.0421C3.90636 11.0421 0 14.3634 0 15.9804V19H20V15.9804C20 14.0249 16.3018 11.0421 10 11.0421Z" fill="#EAEAEA"/>
</svg>
