<svg width="64" height="64" viewBox="0 0 64 64" fill="none" xmlns="http://www.w3.org/2000/svg">
<path d="M29.6562 0H19.0104C17.327 5.08585e-05 15.7027 0.620521 14.448 1.74279C13.1934 2.86506 12.3963 4.41038 12.2093 6.08333H6.84375C5.02867 6.08333 3.28794 6.80437 2.00449 8.08782C0.721036 9.37127 0 11.112 0 12.9271V53.9896C0 55.8047 0.721036 57.5454 2.00449 58.8288C3.28794 60.1123 5.02867 60.8333 6.84375 60.8333H32.8804C29.342 57.1559 27.3684 52.2491 27.375 47.1458C27.375 43.359 28.4396 39.8215 30.2859 36.8163L22.9037 44.1954C22.476 44.6226 21.8962 44.8626 21.2917 44.8626C20.6871 44.8626 20.1073 44.6226 19.6796 44.1954L12.0754 36.5913C11.8513 36.3824 11.6715 36.1306 11.5468 35.8507C11.4221 35.5709 11.3551 35.2688 11.3497 34.9625C11.3443 34.6562 11.4006 34.3519 11.5154 34.0679C11.6301 33.7838 11.8009 33.5258 12.0175 33.3092C12.2341 33.0926 12.4922 32.9218 12.7762 32.807C13.0603 32.6923 13.3645 32.636 13.6708 32.6414C13.9771 32.6468 14.2792 32.7138 14.5591 32.8385C14.8389 32.9632 15.0907 33.143 15.2996 33.3671L21.2917 39.3592L36.4088 24.2421C36.6176 24.018 36.8694 23.8382 37.1493 23.7135C37.4291 23.5888 37.7312 23.5218 38.0375 23.5164C38.3438 23.511 38.6481 23.5673 38.9321 23.682C39.2162 23.7968 39.4742 23.9676 39.6908 24.1842C39.9074 24.4008 40.0782 24.6588 40.193 24.9429C40.3077 25.2269 40.364 25.5312 40.3586 25.8375C40.3532 26.1438 40.2862 26.4459 40.1615 26.7257C40.0368 27.0056 39.857 27.2574 39.6329 27.4662L36.8163 30.2859C40.3646 28.1036 44.5138 27.1036 48.6667 27.4298V12.9271C48.6667 11.112 47.9456 9.37127 46.6622 8.08782C45.3787 6.80437 43.638 6.08333 41.8229 6.08333H36.4574C36.2704 4.41038 35.4733 2.86506 34.2186 1.74279C32.9639 0.620521 31.3396 5.08585e-05 29.6562 0ZM19.0104 4.5625H29.6562C30.2613 4.5625 30.8415 4.80285 31.2693 5.23066C31.6972 5.65848 31.9375 6.23873 31.9375 6.84375C31.9375 7.44878 31.6972 8.02902 31.2693 8.45684C30.8415 8.88465 30.2613 9.125 29.6562 9.125H19.0104C18.4054 9.125 17.8251 8.88465 17.3973 8.45684C16.9695 8.02902 16.7292 7.44878 16.7292 6.84375C16.7292 6.23873 16.9695 5.65848 17.3973 5.23066C17.8251 4.80285 18.4054 4.5625 19.0104 4.5625ZM63.875 47.1458C63.875 42.709 62.1125 38.4539 58.9751 35.3165C55.8378 32.1792 51.5827 30.4167 47.1458 30.4167C42.709 30.4167 38.4539 32.1792 35.3165 35.3165C32.1792 38.4539 30.4167 42.709 30.4167 47.1458C30.4167 51.5827 32.1792 55.8378 35.3165 58.9751C38.4539 62.1125 42.709 63.875 47.1458 63.875C51.5827 63.875 55.8378 62.1125 58.9751 58.9751C62.1125 55.8378 63.875 51.5827 63.875 47.1458ZM48.6667 48.6667L48.6697 56.28C48.6697 56.6833 48.5095 57.0701 48.2243 57.3554C47.9391 57.6406 47.5522 57.8008 47.1489 57.8008C46.7455 57.8008 46.3587 57.6406 46.0735 57.3554C45.7883 57.0701 45.628 56.6833 45.628 56.28V48.6667H38.0087C37.6053 48.6667 37.2185 48.5064 36.9333 48.2212C36.6481 47.936 36.4878 47.5492 36.4878 47.1458C36.4878 46.7425 36.6481 46.3557 36.9333 46.0704C37.2185 45.7852 37.6053 45.625 38.0087 45.625H45.625V38.0208C45.625 37.6175 45.7852 37.2307 46.0704 36.9454C46.3557 36.6602 46.7425 36.5 47.1458 36.5C47.5492 36.5 47.936 36.6602 48.2212 36.9454C48.5064 37.2307 48.6667 37.6175 48.6667 38.0208V45.625H56.2617C56.6651 45.625 57.0519 45.7852 57.3371 46.0704C57.6223 46.3557 57.7825 46.7425 57.7825 47.1458C57.7825 47.5492 57.6223 47.936 57.3371 48.2212C57.0519 48.5064 56.6651 48.6667 56.2617 48.6667H48.6667Z" fill="white"/>
</svg>
