<svg width="124" height="155" viewBox="0 0 124 155" fill="none" xmlns="http://www.w3.org/2000/svg">
<path d="M-10.2217 -38.7442C-34.8203 -29.7587 -54.9036 -11.4678 -66.1429 12.1862C-77.3821 35.8402 -78.8774 62.9632 -70.3065 87.7094C-61.7356 112.456 -43.7847 132.843 -20.3229 144.478C3.13895 156.114 30.233 158.064 55.1197 149.91C80.0064 141.757 100.693 124.151 112.721 100.888C124.748 77.6247 127.154 50.5673 119.419 25.5471C111.685 0.526926 94.4291 -20.4525 71.3714 -32.8693C48.3138 -45.2862 21.3006 -48.1463 -3.84601 -40.8331L3.20182 -16.5989C21.9916 -22.0633 42.1762 -19.9262 59.405 -10.6482C76.6339 -1.37022 89.5276 14.3058 95.307 33.0011C101.086 51.6964 99.2887 71.914 90.3015 89.2964C81.3143 106.679 65.8572 119.834 47.2616 125.927C28.666 132.019 8.42104 130.562 -9.10987 121.868C-26.6408 113.174 -40.0539 97.94 -46.4581 79.4494C-52.8624 60.9588 -51.7451 40.6922 -43.347 23.0177C-34.9489 5.34322 -19.9425 -8.32393 -1.56215 -15.038L-10.2217 -38.7442Z" fill="#FDB71A" fill-opacity="0.73"/>
</svg>
