<svg width="80" height="84" viewBox="0 0 80 84" fill="none" xmlns="http://www.w3.org/2000/svg">
<path d="M65.7783 -109.744C41.1797 -100.759 21.0964 -82.4678 9.85715 -58.8138C-1.38213 -35.1598 -2.87744 -8.03676 5.6935 16.7094C14.2644 41.4556 32.2153 61.8433 55.6771 73.4784C79.1389 85.1136 106.233 87.0644 131.12 78.9105C156.006 70.7565 176.693 53.1507 188.721 29.8877C200.748 6.62472 203.154 -20.4327 195.419 -45.4529C187.685 -70.4731 170.429 -91.4525 147.371 -103.869C124.314 -116.286 97.3006 -119.146 72.154 -111.833L79.2018 -87.5989C97.9916 -93.0633 118.176 -90.9262 135.405 -81.6482C152.634 -72.3702 165.528 -56.6942 171.307 -37.9989C177.086 -19.3036 175.289 0.914049 166.302 18.2964C157.314 35.6788 141.857 48.834 123.262 54.9267C104.666 61.0194 84.421 59.5617 66.8901 50.8678C49.3592 42.1739 35.9461 26.94 29.5419 8.44942C23.1376 -10.0412 24.2549 -30.3078 32.653 -47.9823C41.0511 -65.6568 56.0575 -79.3239 74.4379 -86.038L65.7783 -109.744Z" fill="#D3ACD1" fill-opacity="0.78"/>
</svg>
