<svg width="141" height="140" viewBox="0 0 141 140" fill="none" xmlns="http://www.w3.org/2000/svg">
<path d="M6.77833 -53.7441C-17.8203 -44.7586 -37.9036 -26.4677 -49.1429 -2.81372C-60.3821 20.8403 -61.8774 47.9633 -53.3065 72.7095C-44.7356 97.4556 -26.7847 117.843 -3.32287 129.478C20.1389 141.114 47.233 143.064 72.1197 134.911C97.0064 126.757 117.693 109.151 129.721 85.8878C141.748 62.6248 144.154 35.5673 136.419 10.5472C128.685 -14.473 111.429 -35.4524 88.3714 -47.8693C65.3138 -60.2861 38.3006 -63.1462 13.154 -55.8331L24.1133 -18.149C39.3751 -22.5874 55.7698 -20.8516 69.7638 -13.3156C83.7578 -5.77965 94.2305 6.95302 98.9248 22.1381C103.619 37.3232 102.159 53.7447 94.8591 67.8634C87.5594 81.982 75.0044 92.6672 59.9004 97.6159C44.7963 102.565 28.3526 101.381 14.1133 94.3191C-0.126024 87.2576 -11.0207 74.884 -16.2225 59.8652C-21.4243 44.8465 -20.5168 28.3851 -13.6955 14.0292C-6.87423 -0.326737 5.31457 -11.4277 20.2438 -16.8812L6.77833 -53.7441Z" fill="#D3ACD1" fill-opacity="0.78"/>
</svg>
